<?xml version="1.0" standalone="no"?>
<!DOCTYPE svg PUBLIC "-//W3C//DTD SVG 20010904//EN"
 "http://www.w3.org/TR/2001/REC-SVG-20010904/DTD/svg10.dtd">
<svg version="1.0" xmlns="http://www.w3.org/2000/svg"
 width="1876.000000pt" height="1798.000000pt" viewBox="0 0 1876.000000 1798.000000"
 preserveAspectRatio="xMidYMid meet">

<g transform="translate(0.000000,1798.000000) scale(0.100000,-0.100000)"
fill="#000000" stroke="none">
<path d="M1470 9169 l0 -8082 163 6 c756 29 1503 368 2042 928 445 462 713
1005 828 1679 l21 125 3 4073 c2 2344 7 4072 12 4070 5 -2 98 -118 207 -258
109 -140 234 -291 279 -336 239 -241 553 -390 895 -424 82 -8 551 -10 1621 -8
l1506 3 -2501 3150 -2502 3150 -1287 3 -1287 2 0 -8081z"/>
<path d="M9383 14843 c3 -2185 4 -2356 21 -2457 50 -312 162 -606 324 -849 32
-49 367 -473 743 -942 l684 -853 3 594 2 594 118 0 c64 0 1096 -16 2292 -35
1196 -19 2183 -35 2193 -35 16 0 17 -108 17 -2126 l0 -2126 293 5 c320 5 355
9 547 73 212 70 407 192 569 354 246 246 394 558 431 912 6 59 10 1767 10
4666 l0 4573 -407 -3 c-404 -4 -409 -4 -505 -30 -381 -104 -682 -382 -803
-742 -63 -187 -59 -60 -62 -1913 l-4 -1693 -2379 0 -2380 0 0 103 c0 56 12
784 26 1617 20 1176 23 1535 14 1605 -59 471 -367 850 -815 999 -147 49 -218
56 -592 56 l-344 0 4 -2347z"/>
<path d="M12020 15360 l0 -1830 1550 0 1550 0 0 1830 0 1830 -1550 0 -1550 0
0 -1830z"/>
<path d="M6066 10054 c-3 -8 -2 -22 2 -31 5 -8 1577 -2021 3493 -4473 l3484
-4459 431 0 c475 -1 531 4 698 60 370 124 661 414 785 784 66 197 61 -132 61
4201 l0 3934 -1542 0 -1541 0 6 -842 c4 -464 10 -1093 14 -1398 l6 -555 -25
30 c-13 17 -415 523 -893 1125 -478 602 -895 1125 -928 1162 -190 217 -467
375 -797 454 -70 17 -175 18 -1661 21 -1451 3 -1587 2 -1593 -13z"/>
</g>
</svg>
